<svg xmlns="http://www.w3.org/2000/svg" viewBox="0 0 206.62 84.875"><defs><style>.a{fill:#716ee0;}.b{fill:#2cdbbe;}.c{fill:#4df4e0;}.d{fill:#807cf7;}.e,.n{fill:#5c57bc;}.f{fill:#18b4c4;}.g{fill:#27ba9e;}.h{fill:#169fa5;}.i{fill:#27baba;}.j{fill:#5d5dce;}.k{fill:#4545a3;}.l{fill:#6969e2;}.m{fill:#fff;}.n{stroke:#5c57bc;stroke-miterlimit:10;stroke-width:0.5px;}</style></defs><title>lotus_logo_h</title><path class="a" d="M76.1,66.251c-13.29,0-24.065-14.125-24.065-14.125S62.807,38,76.1,38s24.05,14.125,24.05,14.125S89.387,66.251,76.1,66.251Z" transform="translate(-2.582 -9.691)"/><path class="b" d="M26.647,66.251c-13.29,0-24.065-14.125-24.065-14.125S13.347,38,26.647,38,50.712,52.126,50.712,52.126,39.927,66.251,26.647,66.251Z" transform="translate(-2.582 -9.691)"/><path class="c" d="M26.647,38.011c6.95,11.56,24.385,13.54,24.385,13.54s6.155-16.76-.795-28.32S25.852,9.691,25.852,9.691,19.682,26.451,26.647,38.011Z" transform="translate(-2.582 -9.691)"/><path class="d" d="M52.507,81.026c6.955,11.56,24.385,13.54,24.385,13.54s6.16-16.76-.8-28.32-24.385-13.54-24.385-13.54S45.557,69.466,52.507,81.026Z" transform="translate(-2.582 -9.691)"/><path class="e" d="M76.1,38.011c-6.95,11.56-24.385,13.54-24.385,13.54s-6.155-16.76.795-28.32S76.892,9.691,76.892,9.691,83.052,26.451,76.1,38.011Z" transform="translate(-2.582 -9.691)"/><path class="f" d="M50.227,81.026c-6.955,11.56-24.385,13.54-24.385,13.54s-6.16-16.76.8-28.32,24.385-13.54,24.385-13.54S57.177,69.466,50.227,81.026Z" transform="translate(-2.582 -9.691)"/><path class="g" d="M51.607,50.421c1.075-3.565,4.115-15.55-.25-25.075C47.182,34.976,49.862,46.766,51.607,50.421Z" transform="translate(-2.582 -9.691)"/><path class="h" d="M26.647,66.246h0c11.5-.12,21-10.79,23.355-13.66C46.387,53.206,32.557,56.181,26.647,66.246Z" transform="translate(-2.582 -9.691)"/><path class="i" d="M26.647,38.006h0c6.115,9.94,19.805,13.055,23.63,13.17C47.867,48.351,38.152,37.881,26.652,38Z" transform="translate(-2.582 -9.691)"/><path class="j" d="M52.487,53.076C54.9,55.9,64.612,66.371,76.112,66.251h0C70,56.306,56.472,53.076,52.487,53.076Z" transform="translate(-2.582 -9.691)"/><path class="k" d="M52.757,51.666c3.615-.62,17.44-3.59,23.36-13.655h0C64.612,38.121,55.107,48.791,52.757,51.666Z" transform="translate(-2.582 -9.691)"/><path class="l" d="M51.372,78.826c4.175-9.61,1.275-21.765-.25-25.075C50.047,57.316,47.007,69.306,51.372,78.826Z" transform="translate(-2.582 -9.691)"/><path class="m" d="M51.3,35.586a16.545,16.545,0,1,0,16.435,16.68A16.545,16.545,0,0,0,51.3,35.586Z" transform="translate(-2.582 -9.691)"/><path class="n" d="M58.687,43.336a.63.63,0,0,1-.775.04,1.032,1.032,0,0,1-.24-.185,5.767,5.767,0,0,1-.6-.75A1.181,1.181,0,0,0,56,41.921a1.1,1.1,0,0,0-.665.355,4.14,4.14,0,0,0-1,1.5c-.545,1.675-1,3.39-1.5,5.18l4.38.65c-.12.42-.22.785-.34,1.215h0l-4.235-.6-.5,2.5,4.545.665-.35,1.225h0l-.75-.11-2.935-.425-.75-.105c-.28,1.065-.5,2.11-.84,3.125a25.509,25.509,0,0,1-1.28,3.29,4.525,4.525,0,0,1-3.25,2.58,3.936,3.936,0,0,1-.675.08,2.805,2.805,0,0,1-1.88-.57,1.191,1.191,0,0,1-.5-.725,1.162,1.162,0,0,1,.355-.86.311.311,0,0,1,.16-.05,1.091,1.091,0,0,1,.64.17,3.7,3.7,0,0,1,.655.84,1.129,1.129,0,0,0,1.05.54,1.312,1.312,0,0,0,.7-.33,4.506,4.506,0,0,0,1.365-2.4c.5-1.88.915-3.78,1.36-5.675a2.6,2.6,0,0,0,0-.33l-4.21-.645c.05-.41.1-.76.16-1.22h0l4.345.605.59-2.5-4.55-.7c.055-.42.11-.815.165-1.24h0l4.655.675c.125-.46.235-.885.36-1.3A13.054,13.054,0,0,1,53.007,43.2a4.22,4.22,0,0,1,3.7-2h0a2.584,2.584,0,0,1,1.925.81c.105.12.255.27.25.4C58.872,42.731,58.882,43.156,58.687,43.336Z" transform="translate(-2.582 -9.691)"/><path d="M120.3,67.741c-3.73,0-5.5-1.975-5.5-5.405V36h5.5V63.366h2.96v4.375Z" transform="translate(-2.582 -9.691)"/><path d="M125.922,56.5c0-7.16,4-11.665,10.38-11.665s10.425,4.5,10.425,11.665-4,11.755-10.425,11.755S125.922,63.711,125.922,56.5Zm15.055,2.105v-4.16c0-3.35-1.8-5.19-4.675-5.19s-4.655,1.84-4.655,5.19v4.16c0,3.385,1.805,5.23,4.635,5.23s4.695-1.845,4.695-5.23Z" transform="translate(-2.582 -9.691)"/><path d="M152.6,62.036V49.726h-3.3V45.351h1.715c1.63,0,2.145-.775,2.145-2.315v-3.82h4.93v6.135h4.59v4.375h-4.59v13.64h4.25v4.375h-3.945C154.617,67.741,152.6,65.681,152.6,62.036Z" transform="translate(-2.582 -9.691)"/><path d="M180.822,64.011h-.215a6.073,6.073,0,0,1-6.26,4.245c-4.59,0-7.165-3.175-7.165-8.75V45.351h5.5v13.6c0,3.09,1.16,4.765,3.775,4.765,2.185,0,4.375-1.16,4.375-3.56v-14.8h5.5v22.39h-5.5Z" transform="translate(-2.582 -9.691)"/><path d="M190.727,64.136l3.345-3.26a7.863,7.863,0,0,0,6.135,3.045c2.615,0,3.73-1,3.73-2.57,0-1.29-.77-2.1-2.745-2.36l-2.23-.3c-4.8-.6-7.46-2.705-7.46-6.78,0-4.33,3.385-7.075,8.5-7.075,4.375,0,6.6,1.285,8.75,3.5l-3.215,3.22a7.4,7.4,0,0,0-5.39-2.39c-2.355,0-3.385.945-3.385,2.32,0,1.5.815,2.185,2.915,2.53l2.275.3c4.89.685,7.25,2.875,7.25,6.6,0,4.33-3.65,7.335-9.225,7.335A11.357,11.357,0,0,1,190.727,64.136Z" transform="translate(-2.582 -9.691)"/></svg>