<svg xmlns="http://www.w3.org/2000/svg" viewBox="0 0 206.62 84.875"><defs><style>.a{fill:#716ee0;}.b{fill:#2cdbbe;}.c{fill:#4df4e0;}.d{fill:#807cf7;}.e,.n{fill:#5c57bc;}.f{fill:#18b4c4;}.g{fill:#27ba9e;}.h{fill:#169fa5;}.i{fill:#27baba;}.j{fill:#5d5dce;}.k{fill:#4545a3;}.l{fill:#6969e2;}.m{fill:#fff;}.n{stroke:#5c57bc;stroke-miterlimit:10;stroke-width:0.5px;}</style></defs><title>lotus_logo_h</title><path class="a" d="M256.7,165.538c-13.29,0-24.065-14.125-24.065-14.125s10.775-14.125,24.065-14.125,24.05,14.125,24.05,14.125S269.985,165.538,256.7,165.538Z" transform="translate(-183.18 -108.977)"/><path class="b" d="M207.245,165.538c-13.29,0-24.065-14.125-24.065-14.125s10.765-14.125,24.065-14.125,24.065,14.125,24.065,14.125S220.525,165.538,207.245,165.538Z" transform="translate(-183.18 -108.977)"/><path class="c" d="M207.245,137.3c6.95,11.56,24.385,13.539,24.385,13.539s6.155-16.76-.795-28.32-24.385-13.54-24.385-13.54S200.28,125.737,207.245,137.3Z" transform="translate(-183.18 -108.977)"/><path class="d" d="M233.105,180.313c6.955,11.56,24.385,13.54,24.385,13.54s6.16-16.76-.8-28.32-24.385-13.54-24.385-13.54S226.155,168.752,233.105,180.313Z" transform="translate(-183.18 -108.977)"/><path class="e" d="M256.7,137.3c-6.95,11.56-24.385,13.539-24.385,13.539s-6.155-16.76.795-28.32,24.385-13.54,24.385-13.54S263.65,125.737,256.7,137.3Z" transform="translate(-183.18 -108.977)"/><path class="f" d="M230.825,180.313c-6.955,11.56-24.385,13.54-24.385,13.54s-6.16-16.76.8-28.32,24.385-13.54,24.385-13.54S237.775,168.752,230.825,180.313Z" transform="translate(-183.18 -108.977)"/><path class="g" d="M232.205,149.708c1.075-3.566,4.115-15.55-.25-25.076C227.78,134.263,230.46,146.053,232.205,149.708Z" transform="translate(-183.18 -108.977)"/><path class="h" d="M207.245,165.532h0c11.5-.12,21-10.79,23.355-13.66C226.985,152.493,213.155,155.468,207.245,165.532Z" transform="translate(-183.18 -108.977)"/><path class="i" d="M207.245,137.292h0c6.115,9.941,19.805,13.055,23.63,13.17-2.41-2.824-12.125-13.295-23.625-13.175Z" transform="translate(-183.18 -108.977)"/><path class="j" d="M233.085,152.362c2.41,2.825,12.125,13.3,23.625,13.176h0C250.6,155.593,237.07,152.362,233.085,152.362Z" transform="translate(-183.18 -108.977)"/><path class="k" d="M233.355,150.953c3.615-.62,17.44-3.59,23.36-13.655h0C245.21,137.408,235.705,148.078,233.355,150.953Z" transform="translate(-183.18 -108.977)"/><path class="l" d="M231.97,178.112c4.175-9.61,1.275-21.765-.25-25.074C230.645,156.6,227.605,168.593,231.97,178.112Z" transform="translate(-183.18 -108.977)"/><path class="m" d="M231.9,134.873a16.545,16.545,0,1,0,16.435,16.68A16.544,16.544,0,0,0,231.9,134.873Z" transform="translate(-183.18 -108.977)"/><path class="n" d="M239.285,142.623a.631.631,0,0,1-.775.04,1.106,1.106,0,0,1-.24-.185,5.852,5.852,0,0,1-.6-.75,1.177,1.177,0,0,0-1.075-.52,1.1,1.1,0,0,0-.665.355,4.136,4.136,0,0,0-1,1.5c-.545,1.675-1,3.39-1.5,5.18l4.38.65c-.12.42-.22.785-.34,1.215h0l-4.235-.6-.5,2.5,4.545.665-.35,1.225h0l-.75-.11-2.935-.426-.75-.1c-.28,1.065-.5,2.11-.84,3.125a25.452,25.452,0,0,1-1.28,3.29,4.523,4.523,0,0,1-3.25,2.58,3.829,3.829,0,0,1-.675.081,2.812,2.812,0,0,1-1.88-.57,1.2,1.2,0,0,1-.5-.725,1.159,1.159,0,0,1,.355-.86.306.306,0,0,1,.16-.051,1.1,1.1,0,0,1,.64.17,3.677,3.677,0,0,1,.655.84,1.128,1.128,0,0,0,1.05.54,1.312,1.312,0,0,0,.7-.33,4.5,4.5,0,0,0,1.365-2.4c.5-1.88.915-3.78,1.36-5.675a2.272,2.272,0,0,0,0-.33l-4.21-.645c.05-.41.095-.76.16-1.22h0l4.345.605.59-2.5-4.55-.7c.055-.42.11-.815.165-1.24h0l4.655.676c.125-.46.235-.886.36-1.305a13.049,13.049,0,0,1,1.735-4.136,4.22,4.22,0,0,1,3.7-2h0a2.59,2.59,0,0,1,1.925.81c.105.12.255.27.25.4C239.47,142.017,239.48,142.443,239.285,142.623Z" transform="translate(-183.18 -108.977)"/><path d="M300.9,167.028c-3.73,0-5.5-1.975-5.5-5.405V135.288h5.5v27.365h2.96v4.375Z" transform="translate(-183.18 -108.977)"/><path d="M306.52,155.788c0-7.161,4-11.665,10.38-11.665s10.425,4.5,10.425,11.665-4,11.754-10.425,11.754S306.52,163,306.52,155.788Zm15.055,2.1v-4.16c0-3.35-1.8-5.19-4.675-5.19s-4.655,1.84-4.655,5.19v4.159c0,3.386,1.805,5.231,4.635,5.231s4.695-1.845,4.695-5.231Z" transform="translate(-183.18 -108.977)"/><path d="M333.2,161.322V149.013h-3.3v-4.375h1.715c1.63,0,2.145-.776,2.145-2.316V138.5h4.93v6.136h4.59v4.375h-4.59v13.64h4.25v4.375H338.99C335.215,167.028,333.2,164.968,333.2,161.322Z" transform="translate(-183.18 -108.977)"/><path d="M361.42,163.3h-.215a6.072,6.072,0,0,1-6.26,4.245c-4.59,0-7.165-3.175-7.165-8.75V144.638h5.5v13.6c0,3.089,1.16,4.765,3.775,4.765,2.185,0,4.375-1.161,4.375-3.56v-14.8h5.5v22.39h-5.5Z" transform="translate(-183.18 -108.977)"/><path d="M371.325,163.422l3.345-3.26a7.863,7.863,0,0,0,6.135,3.045c2.615,0,3.73-1,3.73-2.57,0-1.29-.77-2.1-2.745-2.36l-2.23-.3c-4.8-.6-7.46-2.705-7.46-6.78,0-4.33,3.385-7.075,8.5-7.075,4.375,0,6.6,1.285,8.75,3.5l-3.215,3.22a7.393,7.393,0,0,0-5.39-2.389c-2.355,0-3.385.945-3.385,2.32,0,1.5.815,2.185,2.915,2.53l2.275.3c4.89.685,7.25,2.875,7.25,6.6,0,4.33-3.65,7.335-9.225,7.335A11.358,11.358,0,0,1,371.325,163.422Z" transform="translate(-183.18 -108.977)"/></svg>