<svg xmlns="http://www.w3.org/2000/svg" viewBox="0 0 572.99 302.83"><defs><style>.cls-1{fill:#716ee0;}.cls-2{fill:#2cdbbe;}.cls-3{fill:#4df4e0;}.cls-4{fill:#807cf7;}.cls-14,.cls-5{fill:#5c57bc;}.cls-6{fill:#18b4c4;}.cls-7{fill:#27ba9e;}.cls-8{fill:#169fa5;}.cls-9{fill:#27baba;}.cls-10{fill:#5d5dce;}.cls-11{fill:#4545a3;}.cls-12{fill:#6969e2;}.cls-13{fill:#fff;}.cls-14{stroke:#5c57bc;stroke-miterlimit:10;}</style></defs><title>lotus_color_black_logotype_horizontal</title><g id="Layer_4" data-name="Layer 4"><path class="cls-1" d="M226.9,179.66c-26.58,0-48.13-28.25-48.13-28.25s21.55-28.25,48.13-28.25S275,151.41,275,151.41,253.48,179.66,226.9,179.66Z"/><path class="cls-2" d="M128,179.66c-26.58,0-48.13-28.25-48.13-28.25S101.4,123.16,128,123.16s48.13,28.25,48.13,28.25S154.56,179.66,128,179.66Z"/><path class="cls-3" d="M128,123.18c13.9,23.12,48.77,27.08,48.77,27.08s12.31-33.52-1.59-56.64-48.77-27.08-48.77-27.08S114.07,100.06,128,123.18Z"/><path class="cls-4" d="M179.72,209.21c13.91,23.12,48.77,27.08,48.77,27.08s12.32-33.52-1.59-56.64-48.77-27.08-48.77-27.08S165.82,186.09,179.72,209.21Z"/><path class="cls-5" d="M226.9,123.18c-13.9,23.12-48.77,27.08-48.77,27.08s-12.31-33.52,1.59-56.64,48.77-27.08,48.77-27.08S240.81,100.06,226.9,123.18Z"/><path class="cls-6" d="M175.16,209.21c-13.91,23.12-48.77,27.08-48.77,27.08s-12.32-33.52,1.59-56.64,48.77-27.08,48.77-27.08S189.06,186.09,175.16,209.21Z"/><path class="cls-7" d="M177.92,148c2.15-7.13,8.23-31.1-.5-50.15C169.07,117.11,174.43,140.69,177.92,148Z"/><path class="cls-8" d="M128,179.65h0c23-.24,42-21.58,46.71-27.32C167.48,153.57,139.82,159.52,128,179.65Z"/><path class="cls-9" d="M128,123.17h0c12.23,19.88,39.61,26.11,47.26,26.34-4.82-5.65-24.25-26.59-47.25-26.35Z"/><path class="cls-10" d="M179.68,153.31c4.82,5.65,24.25,26.59,47.25,26.35h0C214.71,159.77,187.65,153.31,179.68,153.31Z"/><path class="cls-11" d="M180.22,150.49c7.23-1.24,34.88-7.18,46.72-27.31v0h0C203.93,123.4,184.92,144.74,180.22,150.49Z"/><path class="cls-12" d="M177.45,204.81c8.35-19.22,2.55-43.53-.5-50.15C174.8,161.79,168.72,185.77,177.45,204.81Z"/><path class="cls-13" d="M177.3,118.33a33.09,33.09,0,1,0,32.87,33.36A33.12,33.12,0,0,0,177.3,118.33Z"/><path class="cls-14" d="M192.08,133.83a1.26,1.26,0,0,1-1.55.08,2.12,2.12,0,0,1-.48-.37,11.6,11.6,0,0,1-1.2-1.5A2.36,2.36,0,0,0,186.7,131a2.2,2.2,0,0,0-1.33.71,8.29,8.29,0,0,0-2,3c-1.09,3.35-2,6.78-3,10.36l8.76,1.3c-.24.84-.44,1.57-.68,2.43h0l-8.47-1.2-1,5,9.09,1.33-.7,2.45h0l-1.5-.22-5.87-.85-1.5-.21c-.56,2.13-1,4.22-1.68,6.25a50.92,50.92,0,0,1-2.56,6.58,9.05,9.05,0,0,1-6.5,5.16,7.77,7.77,0,0,1-1.35.16,5.62,5.62,0,0,1-3.76-1.14,2.39,2.39,0,0,1-1-1.45,2.32,2.32,0,0,1,.71-1.72.61.61,0,0,1,.32-.1,2.18,2.18,0,0,1,1.28.34,7.34,7.34,0,0,1,1.31,1.68,2.26,2.26,0,0,0,2.1,1.08,2.64,2.64,0,0,0,1.4-.66,9,9,0,0,0,2.73-4.79c1-3.76,1.83-7.56,2.72-11.35a4.72,4.72,0,0,0,0-.66l-8.42-1.29c.1-.82.19-1.52.32-2.44h0l8.69,1.21,1.18-5-9.1-1.39c.11-.84.22-1.63.33-2.48h0l9.31,1.35c.25-.92.47-1.77.72-2.61.86-2.88,1.66-5.8,3.47-8.27s4.16-4.16,7.4-4h0a5.17,5.17,0,0,1,3.85,1.62c.21.24.51.54.5.8C192.45,132.62,192.47,133.47,192.08,133.83Z"/><path d="M315.31,182.64c-7.46,0-11-3.95-11-10.81V119.16h11v54.73h5.92v8.75Z"/><path d="M326.55,160.16c0-14.32,8-23.33,20.76-23.33s20.85,9,20.85,23.33-8,23.51-20.85,23.51S326.55,174.58,326.55,160.16Zm30.11,4.21v-8.32c0-6.7-3.6-10.38-9.35-10.38S338,149.35,338,156.05v8.32c0,6.77,3.61,10.46,9.27,10.46S356.66,171.14,356.66,164.37Z"/><path d="M379.9,171.23V146.61h-6.6v-8.75h3.43c3.26,0,4.29-1.55,4.29-4.63v-7.64h9.86v12.27h9.18v8.75h-9.18v27.28h8.5v8.75h-7.89C383.94,182.64,379.9,178.52,379.9,171.23Z"/><path d="M436.35,175.18h-.43c-1.54,4.46-5.15,8.49-12.52,8.49-9.18,0-14.33-6.35-14.33-17.5V137.86h11v27.19c0,6.18,2.32,9.53,7.55,9.53,4.37,0,8.75-2.32,8.75-7.12v-29.6h11v44.78h-11Z"/><path d="M456.16,175.43l6.69-6.52c3.26,3.78,7.21,6.09,12.27,6.09,5.23,0,7.46-2,7.46-5.14,0-2.58-1.54-4.21-5.49-4.72l-4.46-.6c-9.6-1.2-14.92-5.41-14.92-13.56,0-8.66,6.77-14.15,17-14.15,8.75,0,13.21,2.57,17.5,7l-6.43,6.44A14.79,14.79,0,0,0,475,145.49c-4.71,0-6.77,1.89-6.77,4.64,0,3,1.63,4.37,5.83,5.06l4.55.6c9.78,1.37,14.5,5.75,14.5,13.21,0,8.66-7.3,14.67-18.45,14.67C466.2,183.67,460.62,180.58,456.16,175.43Z"/></g></svg>